<svg id="graphDiv" width="100%" xmlns="http://www.w3.org/2000/svg" style="max-width: 1912.5806884765625px;" viewBox="-8 -8 1912.5806884765625 868.3148193359375" role="graphics-document document" aria-roledescription="flowchart-v2"><style>#graphDiv{font-family:"trebuchet ms",verdana,arial,sans-serif;font-size:16px;fill:#333;}#graphDiv .error-icon{fill:#552222;}#graphDiv .error-text{fill:#552222;stroke:#552222;}#graphDiv .edge-thickness-normal{stroke-width:2px;}#graphDiv .edge-thickness-thick{stroke-width:3.5px;}#graphDiv .edge-pattern-solid{stroke-dasharray:0;}#graphDiv .edge-pattern-dashed{stroke-dasharray:3;}#graphDiv .edge-pattern-dotted{stroke-dasharray:2;}#graphDiv .marker{fill:#333333;stroke:#333333;}#graphDiv .marker.cross{stroke:#333333;}#graphDiv svg{font-family:"trebuchet ms",verdana,arial,sans-serif;font-size:16px;}#graphDiv .label{font-family:"trebuchet ms",verdana,arial,sans-serif;color:#333;}#graphDiv .cluster-label text{fill:#333;}#graphDiv .cluster-label span,#graphDiv p{color:#333;}#graphDiv .label text,#graphDiv span,#graphDiv p{fill:#333;color:#333;}#graphDiv .node rect,#graphDiv .node circle,#graphDiv .node ellipse,#graphDiv .node polygon,#graphDiv .node path{fill:#ECECFF;stroke:#9370DB;stroke-width:1px;}#graphDiv .flowchart-label text{text-anchor:middle;}#graphDiv .node .katex path{fill:#000;stroke:#000;stroke-width:1px;}#graphDiv .node .label{text-align:center;}#graphDiv .node.clickable{cursor:pointer;}#graphDiv .arrowheadPath{fill:#333333;}#graphDiv .edgePath .path{stroke:#333333;stroke-width:2.0px;}#graphDiv .flowchart-link{stroke:#333333;fill:none;}#graphDiv .edgeLabel{background-color:#e8e8e8;text-align:center;}#graphDiv .edgeLabel rect{opacity:0.5;background-color:#e8e8e8;fill:#e8e8e8;}#graphDiv .labelBkg{background-color:rgba(232, 232, 232, 0.5);}#graphDiv .cluster rect{fill:#ffffde;stroke:#aaaa33;stroke-width:1px;}#graphDiv .cluster text{fill:#333;}#graphDiv .cluster span,#graphDiv p{color:#333;}#graphDiv div.mermaidTooltip{position:absolute;text-align:center;max-width:200px;padding:2px;font-family:"trebuchet ms",verdana,arial,sans-serif;font-size:12px;background:hsl(80, 100%, 96.2745098039%);border:1px solid #aaaa33;border-radius:2px;pointer-events:none;z-index:100;}#graphDiv .flowchartTitleText{text-anchor:middle;font-size:18px;fill:#333;}#graphDiv :root{--mermaid-font-family:"trebuchet ms",verdana,arial,sans-serif;}</style><g><marker id="graphDiv_flowchart-pointEnd" class="marker flowchart" viewBox="0 0 10 10" refX="6" refY="5" markerUnits="userSpaceOnUse" markerWidth="12" markerHeight="12" orient="auto"><path d="M 0 0 L 10 5 L 0 10 z" class="arrowMarkerPath" style="stroke-width: 1; stroke-dasharray: 1, 0;"></path></marker><marker id="graphDiv_flowchart-pointStart" class="marker flowchart" viewBox="0 0 10 10" refX="4.5" refY="5" markerUnits="userSpaceOnUse" markerWidth="12" markerHeight="12" orient="auto"><path d="M 0 5 L 10 10 L 10 0 z" class="arrowMarkerPath" style="stroke-width: 1; stroke-dasharray: 1, 0;"></path></marker><marker id="graphDiv_flowchart-circleEnd" class="marker flowchart" viewBox="0 0 10 10" refX="11" refY="5" markerUnits="userSpaceOnUse" markerWidth="11" markerHeight="11" orient="auto"><circle cx="5" cy="5" r="5" class="arrowMarkerPath" style="stroke-width: 1; stroke-dasharray: 1, 0;"></circle></marker><marker id="graphDiv_flowchart-circleStart" class="marker flowchart" viewBox="0 0 10 10" refX="-1" refY="5" markerUnits="userSpaceOnUse" markerWidth="11" markerHeight="11" orient="auto"><circle cx="5" cy="5" r="5" class="arrowMarkerPath" style="stroke-width: 1; stroke-dasharray: 1, 0;"></circle></marker><marker id="graphDiv_flowchart-crossEnd" class="marker cross flowchart" viewBox="0 0 11 11" refX="12" refY="5.2" markerUnits="userSpaceOnUse" markerWidth="11" markerHeight="11" orient="auto"><path d="M 1,1 l 9,9 M 10,1 l -9,9" class="arrowMarkerPath" style="stroke-width: 2; stroke-dasharray: 1, 0;"></path></marker><marker id="graphDiv_flowchart-crossStart" class="marker cross flowchart" viewBox="0 0 11 11" refX="-1" refY="5.2" markerUnits="userSpaceOnUse" markerWidth="11" markerHeight="11" orient="auto"><path d="M 1,1 l 9,9 M 10,1 l -9,9" class="arrowMarkerPath" style="stroke-width: 2; stroke-dasharray: 1, 0;"></path></marker><g class="root"><g class="clusters"><g class="cluster default flowchart-label" id="DATA"><rect style="" rx="0" ry="0" x="0" y="334" width="431.0104217529297" height="409.31480407714844"></rect><g class="cluster-label" transform="translate(137.93489837646484, 334)"><foreignObject width="155.140625" height="19"><div xmlns="http://www.w3.org/1999/xhtml" style="display: inline-block; white-space: nowrap;"><span class="nodeLabel">Data and Model Layer</span></div></foreignObject></g></g><g class="cluster default flowchart-label" id="APP"><rect style="" rx="0" ry="0" x="451.0104217529297" y="0" width="1166.703125" height="743.3148040771484"></rect><g class="cluster-label" transform="translate(919.0026092529297, 0)"><foreignObject width="230.71875" height="19"><div xmlns="http://www.w3.org/1999/xhtml" style="display: inline-block; white-space: nowrap;"><span class="nodeLabel">Agentic Application - LangGraph</span></div></foreignObject></g></g><g class="cluster default flowchart-label" id="UI"><rect style="" rx="0" ry="0" x="1637.7135467529297" y="603" width="258.8671875" height="249.31480407714844"></rect><g class="cluster-label" transform="translate(1700.0377655029297, 603)"><foreignObject width="134.21875" height="19"><div xmlns="http://www.w3.org/1999/xhtml" style="display: inline-block; white-space: nowrap;"><span class="nodeLabel">Presentation Layer</span></div></foreignObject></g></g></g><g class="edgePaths"><path d="M1771.557,690.157L1771.557,699.017C1771.557,707.877,1771.557,725.596,1771.557,738.622C1771.557,751.648,1771.557,759.981,1770.77,767.455C1769.982,774.93,1768.407,781.544,1767.62,784.852L1766.833,788.159" id="L-U-ST-0" class=" edge-thickness-normal edge-pattern-solid flowchart-link LS-U LE-ST" style="fill:none;" marker-end="url(#graphDiv_flowchart-pointEnd)"></path><path d="M1736.255,793.315L1730.053,789.148C1723.852,784.981,1711.449,776.648,1643.364,768.315C1575.279,759.981,1451.512,751.648,1389.628,735.789C1327.745,719.929,1327.745,696.543,1327.745,673.157C1327.745,649.772,1327.745,626.386,1327.745,608.943C1327.745,591.5,1327.745,580,1327.745,564.083C1327.745,548.167,1327.745,527.833,1327.745,507.5C1327.745,487.167,1327.745,466.833,1327.745,446.5C1327.745,426.167,1327.745,405.833,1327.745,387.083C1327.745,368.333,1327.745,351.167,1327.745,336.833C1327.745,322.5,1327.745,311,1327.745,295.083C1327.745,279.167,1327.745,258.833,1327.745,240.083C1327.745,221.333,1327.745,204.167,1327.745,187C1327.745,169.833,1327.745,152.667,1327.745,135.5C1327.745,118.333,1327.745,101.167,1301.312,88.48C1274.88,75.793,1222.015,67.587,1195.582,63.483L1169.15,59.38" id="L-ST-GR-0" class=" edge-thickness-normal edge-pattern-solid flowchart-link LS-ST LE-GR" style="fill:none;" marker-end="url(#graphDiv_flowchart-pointEnd)"></path><path d="M981.891,59L963.434,63.167C944.978,67.333,908.064,75.667,889.608,83.117C871.151,90.567,871.151,97.133,871.151,100.417L871.151,103.7" id="L-GR-ORCH-0" class=" edge-thickness-normal edge-pattern-solid flowchart-link LS-GR LE-ORCH" style="fill:none;" marker-end="url(#graphDiv_flowchart-pointEnd)"></path><path d="M831.873,165.196L827.066,168.83C822.26,172.464,812.647,179.732,807.84,186.649C803.034,193.567,803.034,200.133,803.034,203.417L803.034,206.7" id="L-ORCH-MEM-0" class=" edge-thickness-normal edge-pattern-solid flowchart-link LS-ORCH LE-MEM" style="fill:none;" marker-start="url(#graphDiv_flowchart-pointStart)" marker-end="url(#graphDiv_flowchart-pointEnd)"></path><path d="M789.753,151.329L759.18,157.274C728.607,163.219,667.461,175.11,636.888,184.338C606.315,193.567,606.315,200.133,606.315,203.417L606.315,206.7" id="L-ORCH-RET-0" class=" edge-thickness-normal edge-pattern-solid flowchart-link LS-ORCH LE-RET" style="fill:none;" marker-end="url(#graphDiv_flowchart-pointEnd)"></path><path d="M610.905,270.245L611.61,275.121C612.315,279.997,613.725,289.748,614.43,300.374C615.135,311,615.135,322.5,615.135,336.833C615.135,351.167,615.135,368.333,615.135,387.083C615.135,405.833,615.135,426.167,615.135,446.5C615.135,466.833,615.135,487.167,615.135,507.5C615.135,527.833,615.135,548.167,615.135,564.083C615.135,580,615.135,591.5,546.913,607.295C478.691,623.09,342.246,643.18,274.023,653.224L205.801,663.269" id="L-RET-VDB-0" class=" edge-thickness-normal edge-pattern-solid flowchart-link LS-RET LE-VDB" style="fill:none;" marker-start="url(#graphDiv_flowchart-pointStart)" marker-end="url(#graphDiv_flowchart-pointEnd)"></path><path d="M669.44,245L757.658,254.083C845.875,263.166,1022.31,281.333,1110.527,296.167C1198.745,311,1198.745,322.5,1198.745,331.533C1198.745,340.567,1198.745,347.133,1198.745,350.417L1198.745,353.7" id="L-RET-ANA-0" class=" edge-thickness-normal edge-pattern-solid flowchart-link LS-RET LE-ANA" style="fill:none;" marker-end="url(#graphDiv_flowchart-pointEnd)"></path><path d="M1198.745,412L1198.745,417.75C1198.745,423.5,1198.745,435,1193.508,445.882C1188.27,456.764,1177.796,467.027,1172.558,472.159L1167.321,477.291" id="L-ANA-VER-0" class=" edge-thickness-normal edge-pattern-solid flowchart-link LS-ANA LE-VER" style="fill:none;" marker-end="url(#graphDiv_flowchart-pointEnd)"></path><path d="M1232.671,524.949L1272.68,532.207C1312.69,539.466,1392.71,553.983,1432.719,566.991C1472.729,580,1472.729,591.5,1472.729,603.643C1472.729,615.786,1472.729,628.572,1472.729,634.965L1472.729,641.357" id="L-VER-EVAL-0" class=" edge-thickness-normal edge-pattern-solid flowchart-link LS-VER LE-EVAL" style="fill:none;" marker-end="url(#graphDiv_flowchart-pointEnd)"></path><path d="M1107.376,481L1101.058,475.25C1094.741,469.5,1082.106,458,1075.789,442.083C1069.471,426.167,1069.471,405.833,1069.471,387.083C1069.471,368.333,1069.471,351.167,1069.471,336.833C1069.471,322.5,1069.471,311,1069.471,295.083C1069.471,279.167,1069.471,258.833,1069.471,240.083C1069.471,221.333,1069.471,204.167,1050.839,190.745C1032.207,177.323,994.943,167.646,976.311,162.808L957.679,157.97" id="L-VER-ORCH-0" class=" edge-thickness-normal edge-pattern-solid flowchart-link LS-VER LE-ORCH" style="fill:none;" marker-end="url(#graphDiv_flowchart-pointEnd)"></path><path d="M1472.729,699.657L1472.729,706.934C1472.729,714.21,1472.729,728.762,1519.201,740.205C1565.672,751.648,1658.615,759.981,1705.873,767.455C1753.132,774.93,1754.707,781.544,1755.495,784.852L1756.282,788.159" id="L-EVAL-ST-0" class=" edge-thickness-normal edge-pattern-solid flowchart-link LS-EVAL LE-ST" style="fill:none;" marker-end="url(#graphDiv_flowchart-pointEnd)"></path><path d="M139.143,412.5L139.06,418.167C138.977,423.833,138.81,435.167,138.727,445.7C138.643,456.233,138.643,465.967,138.643,470.833L138.643,475.7" id="L-DOCS-EMB-0" class=" edge-thickness-normal edge-pattern-dotted flowchart-link LS-DOCS LE-EMB" style="fill:none;stroke-width:2px;stroke-dasharray:3;" marker-end="url(#graphDiv_flowchart-pointEnd)"></path><path d="M138.643,534L138.643,539.75C138.643,545.5,138.643,557,138.643,568.5C138.643,580,138.643,591.5,138.643,600.533C138.643,609.567,138.643,616.133,138.643,619.417L138.643,622.7" id="L-EMB-VDB-0" class=" edge-thickness-normal edge-pattern-dotted flowchart-link LS-EMB LE-VDB" style="fill:none;stroke-width:2px;stroke-dasharray:3;" marker-end="url(#graphDiv_flowchart-pointEnd)"></path><path d="M574.497,265L567.593,270.75C560.689,276.5,546.881,288,539.977,299.5C533.073,311,533.073,322.5,533.073,336.833C533.073,351.167,533.073,368.333,533.073,387.083C533.073,405.833,533.073,426.167,479.939,444.551C426.806,462.935,320.539,479.369,267.405,487.586L214.272,495.804" id="L-RET-EMB-0" class=" edge-thickness-normal edge-pattern-dotted flowchart-link LS-RET LE-EMB" style="fill:none;stroke-width:2px;stroke-dasharray:3;" marker-end="url(#graphDiv_flowchart-pointEnd)"></path><path d="M1106.924,409.121L1082.708,415.351C1058.492,421.581,1010.06,434.04,985.844,450.437C961.628,466.833,961.628,487.167,961.628,507.5C961.628,527.833,961.628,548.167,961.628,564.083C961.628,580,961.628,591.5,868.236,607.514C774.845,623.528,588.062,644.057,494.67,654.321L401.279,664.585" id="L-ANA-LLM-0" class=" edge-thickness-normal edge-pattern-solid flowchart-link LS-ANA LE-LLM" style="fill:none;" marker-end="url(#graphDiv_flowchart-pointEnd)"></path><path d="M1051.837,534L1033.469,539.75C1015.101,545.5,978.364,557,959.996,568.5C941.628,580,941.628,591.5,851.569,607.468C761.511,623.436,581.394,643.872,491.335,654.09L401.277,664.308" id="L-VER-LLM-0" class=" edge-thickness-normal edge-pattern-solid flowchart-link LS-VER LE-LLM" style="fill:none;" marker-end="url(#graphDiv_flowchart-pointEnd)"></path><path d="M897.124,162L901.208,166.167C905.292,170.333,913.46,178.667,917.544,191.417C921.628,204.167,921.628,221.333,921.628,240.083C921.628,258.833,921.628,279.167,921.628,295.083C921.628,311,921.628,322.5,921.628,336.833C921.628,351.167,921.628,368.333,921.628,387.083C921.628,405.833,921.628,426.167,921.628,446.5C921.628,466.833,921.628,487.167,921.628,507.5C921.628,527.833,921.628,548.167,921.628,564.083C921.628,580,921.628,591.5,834.902,607.419C748.177,623.338,574.725,643.675,488,653.844L401.274,664.013" id="L-ORCH-LLM-0" class=" edge-thickness-normal edge-pattern-solid flowchart-link LS-ORCH LE-LLM" style="fill:none;" marker-end="url(#graphDiv_flowchart-pointEnd)"></path></g><g class="edgeLabels"><g class="edgeLabel"><g class="label" transform="translate(0, 0)"><foreignObject width="0" height="0"><div xmlns="http://www.w3.org/1999/xhtml" style="display: inline-block; white-space: nowrap;"><span class="edgeLabel"></span></div></foreignObject></g></g><g class="edgeLabel"><g class="label" transform="translate(0, 0)"><foreignObject width="0" height="0"><div xmlns="http://www.w3.org/1999/xhtml" style="display: inline-block; white-space: nowrap;"><span class="edgeLabel"></span></div></foreignObject></g></g><g class="edgeLabel"><g class="label" transform="translate(0, 0)"><foreignObject width="0" height="0"><div xmlns="http://www.w3.org/1999/xhtml" style="display: inline-block; white-space: nowrap;"><span class="edgeLabel"></span></div></foreignObject></g></g><g class="edgeLabel"><g class="label" transform="translate(0, 0)"><foreignObject width="0" height="0"><div xmlns="http://www.w3.org/1999/xhtml" style="display: inline-block; white-space: nowrap;"><span class="edgeLabel"></span></div></foreignObject></g></g><g class="edgeLabel"><g class="label" transform="translate(0, 0)"><foreignObject width="0" height="0"><div xmlns="http://www.w3.org/1999/xhtml" style="display: inline-block; white-space: nowrap;"><span class="edgeLabel"></span></div></foreignObject></g></g><g class="edgeLabel"><g class="label" transform="translate(0, 0)"><foreignObject width="0" height="0"><div xmlns="http://www.w3.org/1999/xhtml" style="display: inline-block; white-space: nowrap;"><span class="edgeLabel"></span></div></foreignObject></g></g><g class="edgeLabel"><g class="label" transform="translate(0, 0)"><foreignObject width="0" height="0"><div xmlns="http://www.w3.org/1999/xhtml" style="display: inline-block; white-space: nowrap;"><span class="edgeLabel"></span></div></foreignObject></g></g><g class="edgeLabel"><g class="label" transform="translate(0, 0)"><foreignObject width="0" height="0"><div xmlns="http://www.w3.org/1999/xhtml" style="display: inline-block; white-space: nowrap;"><span class="edgeLabel"></span></div></foreignObject></g></g><g class="edgeLabel" transform="translate(1472.7291717529297, 568.5)"><g class="label" transform="translate(-33.4375, -9.5)"><foreignObject width="66.875" height="19"><div xmlns="http://www.w3.org/1999/xhtml" style="display: inline-block; white-space: nowrap;"><span class="edgeLabel">grounded</span></div></foreignObject></g></g><g class="edgeLabel" transform="translate(1069.4713592529297, 299.5)"><g class="label" transform="translate(-109.2734375, -9.5)"><foreignObject width="218.546875" height="19"><div xmlns="http://www.w3.org/1999/xhtml" style="display: inline-block; white-space: nowrap;"><span class="edgeLabel">low confidence: retry / clarify</span></div></foreignObject></g></g><g class="edgeLabel"><g class="label" transform="translate(0, 0)"><foreignObject width="0" height="0"><div xmlns="http://www.w3.org/1999/xhtml" style="display: inline-block; white-space: nowrap;"><span class="edgeLabel"></span></div></foreignObject></g></g><g class="edgeLabel" transform="translate(138.6432342529297, 446.5)"><g class="label" transform="translate(-32.390625, -9.5)"><foreignObject width="64.78125" height="19"><div xmlns="http://www.w3.org/1999/xhtml" style="display: inline-block; white-space: nowrap;"><span class="edgeLabel">ingestion</span></div></foreignObject></g></g><g class="edgeLabel" transform="translate(138.6432342529297, 568.5)"><g class="label" transform="translate(-26.0546875, -9.5)"><foreignObject width="52.109375" height="19"><div xmlns="http://www.w3.org/1999/xhtml" style="display: inline-block; white-space: nowrap;"><span class="edgeLabel">vectors</span></div></foreignObject></g></g><g class="edgeLabel" transform="translate(533.0729217529297, 385.5)"><g class="label" transform="translate(-62.0625, -9.5)"><foreignObject width="124.125" height="19"><div xmlns="http://www.w3.org/1999/xhtml" style="display: inline-block; white-space: nowrap;"><span class="edgeLabel">query embedding</span></div></foreignObject></g></g><g class="edgeLabel"><g class="label" transform="translate(0, 0)"><foreignObject width="0" height="0"><div xmlns="http://www.w3.org/1999/xhtml" style="display: inline-block; white-space: nowrap;"><span class="edgeLabel"></span></div></foreignObject></g></g><g class="edgeLabel"><g class="label" transform="translate(0, 0)"><foreignObject width="0" height="0"><div xmlns="http://www.w3.org/1999/xhtml" style="display: inline-block; white-space: nowrap;"><span class="edgeLabel"></span></div></foreignObject></g></g><g class="edgeLabel"><g class="label" transform="translate(0, 0)"><foreignObject width="0" height="0"><div xmlns="http://www.w3.org/1999/xhtml" style="display: inline-block; white-space: nowrap;"><span class="edgeLabel"></span></div></foreignObject></g></g></g><g class="nodes"><g class="node default default flowchart-label" id="flowchart-VDB-9" label-offset-y="12.441130298273155" data-node="true" data-id="VDB" transform="translate(138.6432342529297, 673.1574020385742)"><path style="" d="M 0,12.441130298273155 a 61.9140625,12.441130298273155 0,0,0 123.828125 0 a 61.9140625,12.441130298273155 0,0,0 -123.828125 0 l 0,65.44113029827315 a 61.9140625,12.441130298273155 0,0,0 123.828125 0 l 0,-65.44113029827315" transform="translate(-61.9140625,-45.16169544740973)"></path><g class="label" style="" transform="translate(-54.4140625, -19)"><rect></rect><foreignObject width="108.828125" height="38"><div xmlns="http://www.w3.org/1999/xhtml" style="display: inline-block; white-space: nowrap;"><span class="nodeLabel">Vector DB<br/>Chroma / FAISS</span></div></foreignObject></g></g><g class="node default default flowchart-label" id="flowchart-EMB-10" data-node="true" data-id="EMB" transform="translate(138.6432342529297, 507.5)"><rect class="basic label-container" style="" rx="0" ry="0" x="-70.390625" y="-26.5" width="140.78125" height="53"></rect><g class="label" style="" transform="translate(-62.890625, -19)"><rect></rect><foreignObject width="125.78125" height="38"><div xmlns="http://www.w3.org/1999/xhtml" style="display: inline-block; white-space: nowrap;"><span class="nodeLabel">Embedding Model<br/>Azure OpenAI</span></div></foreignObject></g></g><g class="node default default flowchart-label" id="flowchart-LLM-11" data-node="true" data-id="LLM" transform="translate(323.2838592529297, 673.1574020385742)"><rect class="basic label-container" style="" rx="0" ry="0" x="-72.7265625" y="-26.5" width="145.453125" height="53"></rect><g class="label" style="" transform="translate(-65.2265625, -19)"><rect></rect><foreignObject width="130.453125" height="38"><div xmlns="http://www.w3.org/1999/xhtml" style="display: inline-block; white-space: nowrap;"><span class="nodeLabel">LLM<br/>Azure OpenAI GPT</span></div></foreignObject></g></g><g class="node default default flowchart-label" id="flowchart-DOCS-12" data-node="true" data-id="DOCS" transform="translate(138.6432342529297, 385.5)"><polygon points="-17.666666666666668,0 163.11979166666666,0 189.61979166666666,-53 8.833333333333334,-53" class="label-container" transform="translate(-85.9765625,26.5)" style=""></polygon><g class="label" style="" transform="translate(-78.4765625, -19)"><rect></rect><foreignObject width="156.953125" height="38"><div xmlns="http://www.w3.org/1999/xhtml" style="display: inline-block; white-space: nowrap;"><span class="nodeLabel">Enterprise Documents<br/>PDF, DOCX, TXT</span></div></foreignObject></g></g><g class="node default default flowchart-label" id="flowchart-GR-2" data-node="true" data-id="GR" transform="translate(1057.1940155029297, 42)"><rect class="basic label-container" style="" rx="0" ry="0" x="-106.71875" y="-17" width="213.4375" height="34"></rect><g class="label" style="" transform="translate(-99.21875, -9.5)"><rect></rect><foreignObject width="198.4375" height="19"><div xmlns="http://www.w3.org/1999/xhtml" style="display: inline-block; white-space: nowrap;"><span class="nodeLabel">Guardrail / Input Validation</span></div></foreignObject></g></g><g class="node default default flowchart-label" id="flowchart-ORCH-3" data-node="true" data-id="ORCH" transform="translate(871.1510467529297, 135.5)"><rect class="basic label-container" style="" rx="0" ry="0" x="-81.3984375" y="-26.5" width="162.796875" height="53"></rect><g class="label" style="" transform="translate(-73.8984375, -19)"><rect></rect><foreignObject width="147.796875" height="38"><div xmlns="http://www.w3.org/1999/xhtml" style="display: inline-block; white-space: nowrap;"><span class="nodeLabel">Orchestrator Agent<br/>planning and routing</span></div></foreignObject></g></g><g class="node default default flowchart-label" id="flowchart-RET-4" data-node="true" data-id="RET" transform="translate(606.3151092529297, 238.5)"><rect class="basic label-container" style="" rx="0" ry="0" x="-63.125" y="-26.5" width="126.25" height="53"></rect><g class="label" style="" transform="translate(-55.625, -19)"><rect></rect><foreignObject width="111.25" height="38"><div xmlns="http://www.w3.org/1999/xhtml" style="display: inline-block; white-space: nowrap;"><span class="nodeLabel">Retriever Agent<br/>RAG</span></div></foreignObject></g></g><g class="node default default flowchart-label" id="flowchart-ANA-5" data-node="true" data-id="ANA" transform="translate(1198.7447967529297, 385.5)"><rect class="basic label-container" style="" rx="0" ry="0" x="-91.8203125" y="-26.5" width="183.640625" height="53"></rect><g class="label" style="" transform="translate(-84.3203125, -19)"><rect></rect><foreignObject width="168.640625" height="38"><div xmlns="http://www.w3.org/1999/xhtml" style="display: inline-block; white-space: nowrap;"><span class="nodeLabel">Analyst Agent<br/>reasoning and synthesis</span></div></foreignObject></g></g><g class="node default default flowchart-label" id="flowchart-VER-6" data-node="true" data-id="VER" transform="translate(1136.4908905029297, 507.5)"><rect class="basic label-container" style="" rx="0" ry="0" x="-96.1796875" y="-26.5" width="192.359375" height="53"></rect><g class="label" style="" transform="translate(-88.6796875, -19)"><rect></rect><foreignObject width="177.359375" height="38"><div xmlns="http://www.w3.org/1999/xhtml" style="display: inline-block; white-space: nowrap;"><span class="nodeLabel">Verifier Agent<br/>grounding and validation</span></div></foreignObject></g></g><g class="node default default flowchart-label" id="flowchart-MEM-7" data-node="true" data-id="MEM" transform="translate(803.0338592529297, 238.5)"><rect class="basic label-container" style="" rx="0" ry="0" x="-83.59375" y="-26.5" width="167.1875" height="53"></rect><g class="label" style="" transform="translate(-76.09375, -19)"><rect></rect><foreignObject width="152.1875" height="38"><div xmlns="http://www.w3.org/1999/xhtml" style="display: inline-block; white-space: nowrap;"><span class="nodeLabel">Memory Agent<br/>context management</span></div></foreignObject></g></g><g class="node default default flowchart-label" id="flowchart-EVAL-8" data-node="true" data-id="EVAL" transform="translate(1472.7291717529297, 673.1574020385742)"><rect class="basic label-container" style="" rx="0" ry="0" x="-109.984375" y="-26.5" width="219.96875" height="53"></rect><g class="label" style="" transform="translate(-102.484375, -19)"><rect></rect><foreignObject width="204.96875" height="38"><div xmlns="http://www.w3.org/1999/xhtml" style="display: inline-block; white-space: nowrap;"><span class="nodeLabel">Evaluation and Observability<br/>traces, scores, failure flags</span></div></foreignObject></g></g><g class="node default default flowchart-label" id="flowchart-U-0" data-node="true" data-id="U" transform="translate(1771.5572967529297, 673.1574020385742)"><rect class="basic label-container" style="" rx="0" ry="0" x="-90.0234375" y="-17" width="180.046875" height="34"></rect><g class="label" style="" transform="translate(-82.5234375, -9.5)"><rect></rect><foreignObject width="165.046875" height="19"><div xmlns="http://www.w3.org/1999/xhtml" style="display: inline-block; white-space: nowrap;"><span class="nodeLabel">User / Business Analyst</span></div></foreignObject></g></g><g class="node default default flowchart-label" id="flowchart-ST-1" data-node="true" data-id="ST" transform="translate(1761.5572967529297, 810.3148040771484)"><rect class="basic label-container" style="" rx="0" ry="0" x="-87.6640625" y="-17" width="175.328125" height="34"></rect><g class="label" style="" transform="translate(-80.1640625, -9.5)"><rect></rect><foreignObject width="160.328125" height="19"><div xmlns="http://www.w3.org/1999/xhtml" style="display: inline-block; white-space: nowrap;"><span class="nodeLabel">Streamlit UI - optional</span></div></foreignObject></g></g></g></g></g></svg>