<svg id="graphDiv" width="100%" xmlns="http://www.w3.org/2000/svg" class="statediagram" style="max-width: 1266.34375px;" viewBox="0 0 1266.34375 953" role="graphics-document document" aria-roledescription="stateDiagram"><style>#graphDiv{font-family:"trebuchet ms",verdana,arial,sans-serif;font-size:16px;fill:#333;}#graphDiv .error-icon{fill:#552222;}#graphDiv .error-text{fill:#552222;stroke:#552222;}#graphDiv .edge-thickness-normal{stroke-width:2px;}#graphDiv .edge-thickness-thick{stroke-width:3.5px;}#graphDiv .edge-pattern-solid{stroke-dasharray:0;}#graphDiv .edge-pattern-dashed{stroke-dasharray:3;}#graphDiv .edge-pattern-dotted{stroke-dasharray:2;}#graphDiv .marker{fill:#333333;stroke:#333333;}#graphDiv .marker.cross{stroke:#333333;}#graphDiv svg{font-family:"trebuchet ms",verdana,arial,sans-serif;font-size:16px;}#graphDiv defs #statediagram-barbEnd{fill:#333333;stroke:#333333;}#graphDiv g.stateGroup text{fill:#9370DB;stroke:none;font-size:10px;}#graphDiv g.stateGroup text{fill:#333;stroke:none;font-size:10px;}#graphDiv g.stateGroup .state-title{font-weight:bolder;fill:#131300;}#graphDiv g.stateGroup rect{fill:#ECECFF;stroke:#9370DB;}#graphDiv g.stateGroup line{stroke:#333333;stroke-width:1;}#graphDiv .transition{stroke:#333333;stroke-width:1;fill:none;}#graphDiv .stateGroup .composit{fill:white;border-bottom:1px;}#graphDiv .stateGroup .alt-composit{fill:#e0e0e0;border-bottom:1px;}#graphDiv .state-note{stroke:#aaaa33;fill:#fff5ad;}#graphDiv .state-note text{fill:black;stroke:none;font-size:10px;}#graphDiv .stateLabel .box{stroke:none;stroke-width:0;fill:#ECECFF;opacity:0.5;}#graphDiv .edgeLabel .label rect{fill:#ECECFF;opacity:0.5;}#graphDiv .edgeLabel .label text{fill:#333;}#graphDiv .label div .edgeLabel{color:#333;}#graphDiv .stateLabel text{fill:#131300;font-size:10px;font-weight:bold;}#graphDiv .node circle.state-start{fill:#333333;stroke:#333333;}#graphDiv .node .fork-join{fill:#333333;stroke:#333333;}#graphDiv .node circle.state-end{fill:#9370DB;stroke:white;stroke-width:1.5;}#graphDiv .end-state-inner{fill:white;stroke-width:1.5;}#graphDiv .node rect{fill:#ECECFF;stroke:#9370DB;stroke-width:1px;}#graphDiv .node polygon{fill:#ECECFF;stroke:#9370DB;stroke-width:1px;}#graphDiv #statediagram-barbEnd{fill:#333333;}#graphDiv .statediagram-cluster rect{fill:#ECECFF;stroke:#9370DB;stroke-width:1px;}#graphDiv .cluster-label,#graphDiv .nodeLabel{color:#131300;}#graphDiv .statediagram-cluster rect.outer{rx:5px;ry:5px;}#graphDiv .statediagram-state .divider{stroke:#9370DB;}#graphDiv .statediagram-state .title-state{rx:5px;ry:5px;}#graphDiv .statediagram-cluster.statediagram-cluster .inner{fill:white;}#graphDiv .statediagram-cluster.statediagram-cluster-alt .inner{fill:#f0f0f0;}#graphDiv .statediagram-cluster .inner{rx:0;ry:0;}#graphDiv .statediagram-state rect.basic{rx:5px;ry:5px;}#graphDiv .statediagram-state rect.divider{stroke-dasharray:10,10;fill:#f0f0f0;}#graphDiv .note-edge{stroke-dasharray:5;}#graphDiv .statediagram-note rect{fill:#fff5ad;stroke:#aaaa33;stroke-width:1px;rx:0;ry:0;}#graphDiv .statediagram-note rect{fill:#fff5ad;stroke:#aaaa33;stroke-width:1px;rx:0;ry:0;}#graphDiv .statediagram-note text{fill:black;}#graphDiv .statediagram-note .nodeLabel{color:black;}#graphDiv .statediagram .edgeLabel{color:red;}#graphDiv #dependencyStart,#graphDiv #dependencyEnd{fill:#333333;stroke:#333333;stroke-width:1;}#graphDiv .statediagramTitleText{text-anchor:middle;font-size:18px;fill:#333;}#graphDiv :root{--mermaid-font-family:"trebuchet ms",verdana,arial,sans-serif;}</style><g><defs><marker id="graphDiv_statediagram-barbEnd" refX="19" refY="7" markerWidth="20" markerHeight="14" markerUnits="strokeWidth" orient="auto"><path d="M 19,7 L9,13 L14,7 L9,1 Z"></path></marker></defs><g class="root"><g class="clusters"><g class="note-cluster" id="Plan----parent"><rect x="117.8125" y="175" width="677.41796875" height="225" fill="none"></rect></g><g class="note-cluster" id="Analyze----parent"><rect x="91.59375" y="553" width="303.765625" height="206" fill="none"></rect></g></g><g class="edgePaths"><path d="M723.027,22L723.027,26.167C723.027,30.333,723.027,38.667,723.027,47C723.027,55.333,723.027,63.667,723.027,67.833L723.027,72" id="edge0" class=" edge-thickness-normal transition" style="fill:none" marker-end="url(#graphDiv_statediagram-barbEnd)"></path><path d="M784.816,96.027L849.989,103.439C915.161,110.852,1045.507,125.676,1110.679,138.838C1175.852,152,1175.852,163.5,1175.852,176.25C1175.852,189,1175.852,203,1175.852,218.583C1175.852,234.167,1175.852,251.333,1175.852,271.667C1175.852,292,1175.852,315.5,1175.852,337.417C1175.852,359.333,1175.852,379.667,1175.852,394C1175.852,408.333,1175.852,416.667,1175.852,427.833C1175.852,439,1175.852,453,1175.852,468.583C1175.852,484.167,1175.852,501.333,1175.852,515.667C1175.852,530,1175.852,541.5,1175.852,554.25C1175.852,567,1175.852,581,1175.852,595C1175.852,609,1175.852,623,1175.852,640.167C1175.852,657.333,1175.852,677.667,1175.852,698C1175.852,718.333,1175.852,738.667,1175.852,754.583C1175.852,770.5,1175.852,782,1175.852,793.5C1175.852,805,1175.852,816.5,1175.852,822.25L1175.852,828" id="edge1" class=" edge-thickness-normal transition" style="fill:none" marker-end="url(#graphDiv_statediagram-barbEnd)"></path><path d="M661.238,98.927L618.11,105.856C574.982,112.785,488.725,126.642,445.597,139.321C402.469,152,402.469,163.5,402.469,173.417C402.469,183.333,402.469,191.667,402.469,195.833L402.469,200" id="edge2" class=" edge-thickness-normal transition" style="fill:none" marker-end="url(#graphDiv_statediagram-barbEnd)"></path><path d="M379.57,222.818L349.607,230.432C319.643,238.046,259.716,253.273,210.227,269.803C160.737,286.333,121.685,304.167,102.159,313.083L82.633,322" id="edge3" class=" edge-thickness-normal transition" style="fill:none" marker-end="url(#graphDiv_statediagram-barbEnd)"></path><path d="M379.57,226.77L363.27,233.725C346.969,240.68,314.367,254.59,298.066,267.295C281.766,280,281.766,291.5,281.766,297.25L281.766,303" class=" edge-thickness-normal transition note-edge" style="fill:none"></path><path d="M45.406,356L45.406,363.333C45.406,370.667,45.406,385.333,45.406,396.833C45.406,408.333,45.406,416.667,75.034,426.042C104.661,435.418,163.917,445.836,193.544,451.045L223.172,456.254" id="edge5" class=" edge-thickness-normal transition" style="fill:none" marker-end="url(#graphDiv_statediagram-barbEnd)"></path><path d="M345.406,456.254L375.034,451.045C404.661,445.836,463.917,435.418,493.544,426.042C523.172,416.667,523.172,408.333,523.172,394C523.172,379.667,523.172,359.333,523.172,337.417C523.172,315.5,523.172,292,506.871,273.295C490.57,254.59,457.969,240.68,441.668,233.725L425.367,226.77" id="edge6" class=" edge-thickness-normal transition" style="fill:none" marker-end="url(#graphDiv_statediagram-barbEnd)"></path><path d="M284.289,484L284.289,489.75C284.289,495.5,284.289,507,284.289,518.5C284.289,530,284.289,541.5,284.289,551.417C284.289,561.333,284.289,569.667,284.289,573.833L284.289,578" id="edge7" class=" edge-thickness-normal transition" style="fill:none" marker-end="url(#graphDiv_statediagram-barbEnd)"></path><path d="M310.98,612L317.521,616.167C324.063,620.333,337.147,628.667,409.798,642.322C482.449,655.977,614.668,674.955,680.777,684.443L746.887,693.932" id="edge8" class=" edge-thickness-normal transition" style="fill:none" marker-end="url(#graphDiv_statediagram-barbEnd)"></path><path d="M267.77,612L263.721,616.167C259.672,620.333,251.574,628.667,247.525,637C243.477,645.333,243.477,653.667,243.477,657.833L243.477,662" class=" edge-thickness-normal transition note-edge" style="fill:none"></path><path d="M746.887,709.508L726.571,717.757C706.255,726.005,665.624,742.503,645.308,756.501C624.992,770.5,624.992,782,624.992,793.5C624.992,805,624.992,816.5,624.992,822.25L624.992,828" id="edge10" class=" edge-thickness-normal transition" style="fill:none" marker-end="url(#graphDiv_statediagram-barbEnd)"></path><path d="M775.23,681L775.23,673.667C775.23,666.333,775.23,651.667,775.23,637.333C775.23,623,775.23,609,775.23,595C775.23,581,775.23,567,775.23,554.25C775.23,541.5,775.23,530,775.23,515.667C775.23,501.333,775.23,484.167,775.23,468.583C775.23,453,775.23,439,775.23,427.833C775.23,416.667,775.23,408.333,775.23,394C775.23,379.667,775.23,359.333,775.23,337.417C775.23,315.5,775.23,292,716.92,272.194C658.609,252.388,541.988,236.276,483.678,228.22L425.367,220.164" id="edge11" class=" edge-thickness-normal transition" style="fill:none" marker-end="url(#graphDiv_statediagram-barbEnd)"></path><path d="M803.574,709.508L823.89,717.757C844.206,726.005,884.837,742.503,905.153,756.501C925.469,770.5,925.469,782,925.469,793.5C925.469,805,925.469,816.5,925.469,822.25L925.469,828" id="edge12" class=" edge-thickness-normal transition" style="fill:none" marker-end="url(#graphDiv_statediagram-barbEnd)"></path><path d="M624.992,862L624.992,867.75C624.992,873.5,624.992,885,673.916,897.507C722.84,910.014,820.687,923.528,869.611,930.285L918.535,937.042" id="edge13" class=" edge-thickness-normal transition" style="fill:none" marker-end="url(#graphDiv_statediagram-barbEnd)"></path><path d="M925.469,862L925.469,867.75C925.469,873.5,925.469,885,925.469,896.5C925.469,908,925.469,919.5,925.469,925.25L925.469,931" id="edge14" class=" edge-thickness-normal transition" style="fill:none" marker-end="url(#graphDiv_statediagram-barbEnd)"></path><path d="M1175.852,862L1175.852,867.75C1175.852,873.5,1175.852,885,1135.272,897.476C1094.693,909.952,1013.534,923.404,972.954,930.129L932.375,936.855" id="edge15" class=" edge-thickness-normal transition" style="fill:none" marker-end="url(#graphDiv_statediagram-barbEnd)"></path></g><g class="edgeLabels"><g class="edgeLabel"><g class="label" transform="translate(0, 0)"><rect rx="0" ry="0" width="0" height="0"></rect><foreignObject width="0" height="0"><div xmlns="http://www.w3.org/1999/xhtml" style="display: inline-block; white-space: nowrap;"><span class="edgeLabel"></span></div></foreignObject></g></g><g class="edgeLabel" transform="translate(1175.8515625, 467)"><g class="label" transform="translate(-77.453125, -9.5)"><rect rx="0" ry="0" width="154.90625" height="19"></rect><foreignObject width="154.90625" height="19"><div xmlns="http://www.w3.org/1999/xhtml" style="display: inline-block; white-space: nowrap;"><span class="edgeLabel">invalid / unsafe input</span></div></foreignObject></g></g><g class="edgeLabel" transform="translate(402.46875, 140.5)"><g class="label" transform="translate(-17.21875, -9.5)"><rect rx="0" ry="0" width="34.4375" height="19"></rect><foreignObject width="34.4375" height="19"><div xmlns="http://www.w3.org/1999/xhtml" style="display: inline-block; white-space: nowrap;"><span class="edgeLabel">valid</span></div></foreignObject></g></g><g class="edgeLabel" transform="translate(199.7890625, 268.5)"><g class="label" transform="translate(-61.9765625, -9.5)"><rect rx="0" ry="0" width="123.953125" height="19"></rect><foreignObject width="123.953125" height="19"><div xmlns="http://www.w3.org/1999/xhtml" style="display: inline-block; white-space: nowrap;"><span class="edgeLabel">plan has subtasks</span></div></foreignObject></g></g><g class="edgeLabel"><g class="label" transform="translate(0, 0)"><rect rx="0" ry="0" width="0" height="0"></rect><foreignObject width="0" height="0"><div xmlns="http://www.w3.org/1999/xhtml" style="display: inline-block; white-space: nowrap;"><span class="edgeLabel"></span></div></foreignObject></g></g><g class="edgeLabel"><g class="label" transform="translate(0, 0)"><rect rx="0" ry="0" width="0" height="0"></rect><foreignObject width="0" height="0"><div xmlns="http://www.w3.org/1999/xhtml" style="display: inline-block; white-space: nowrap;"><span class="edgeLabel"></span></div></foreignObject></g></g><g class="edgeLabel" transform="translate(523.171875, 339)"><g class="label" transform="translate(-93.3828125, -9.5)"><rect rx="0" ry="0" width="186.765625" height="19"></rect><foreignObject width="186.765625" height="19"><div xmlns="http://www.w3.org/1999/xhtml" style="display: inline-block; white-space: nowrap;"><span class="edgeLabel">no relevant docs (re-plan)</span></div></foreignObject></g></g><g class="edgeLabel" transform="translate(284.2890625, 518.5)"><g class="label" transform="translate(-79.4765625, -9.5)"><rect rx="0" ry="0" width="158.953125" height="19"></rect><foreignObject width="158.953125" height="19"><div xmlns="http://www.w3.org/1999/xhtml" style="display: inline-block; white-space: nowrap;"><span class="edgeLabel">relevant chunks found</span></div></foreignObject></g></g><g class="edgeLabel"><g class="label" transform="translate(0, 0)"><rect rx="0" ry="0" width="0" height="0"></rect><foreignObject width="0" height="0"><div xmlns="http://www.w3.org/1999/xhtml" style="display: inline-block; white-space: nowrap;"><span class="edgeLabel"></span></div></foreignObject></g></g><g class="edgeLabel"><g class="label" transform="translate(0, 0)"><rect rx="0" ry="0" width="0" height="0"></rect><foreignObject width="0" height="0"><div xmlns="http://www.w3.org/1999/xhtml" style="display: inline-block; white-space: nowrap;"><span class="edgeLabel"></span></div></foreignObject></g></g><g class="edgeLabel" transform="translate(624.9921875, 793.5)"><g class="label" transform="translate(-107.6328125, -9.5)"><rect rx="0" ry="0" width="215.265625" height="19"></rect><foreignObject width="215.265625" height="19"><div xmlns="http://www.w3.org/1999/xhtml" style="display: inline-block; white-space: nowrap;"><span class="edgeLabel">grounded (score &gt;= threshold)</span></div></foreignObject></g></g><g class="edgeLabel" transform="translate(775.23046875, 467)"><g class="label" transform="translate(-128.3359375, -9.5)"><rect rx="0" ry="0" width="256.671875" height="19"></rect><foreignObject width="256.671875" height="19"><div xmlns="http://www.w3.org/1999/xhtml" style="display: inline-block; white-space: nowrap;"><span class="edgeLabel">low grounding (retry, attempts left)</span></div></foreignObject></g></g><g class="edgeLabel" transform="translate(925.46875, 793.5)"><g class="label" transform="translate(-117.34375, -9.5)"><rect rx="0" ry="0" width="234.6875" height="19"></rect><foreignObject width="234.6875" height="19"><div xmlns="http://www.w3.org/1999/xhtml" style="display: inline-block; white-space: nowrap;"><span class="edgeLabel">low grounding (no attempts left)</span></div></foreignObject></g></g><g class="edgeLabel" transform="translate(624.9921875, 896.5)"><g class="label" transform="translate(-132.5859375, -9.5)"><rect rx="0" ry="0" width="265.171875" height="19"></rect><foreignObject width="265.171875" height="19"><div xmlns="http://www.w3.org/1999/xhtml" style="display: inline-block; white-space: nowrap;"><span class="edgeLabel">final answer + citations + eval report</span></div></foreignObject></g></g><g class="edgeLabel" transform="translate(925.46875, 896.5)"><g class="label" transform="translate(-147.890625, -9.5)"><rect rx="0" ry="0" width="295.78125" height="19"></rect><foreignObject width="295.78125" height="19"><div xmlns="http://www.w3.org/1999/xhtml" style="display: inline-block; white-space: nowrap;"><span class="edgeLabel">limited answer + disclaimer + eval report</span></div></foreignObject></g></g><g class="edgeLabel" transform="translate(1175.8515625, 896.5)"><g class="label" transform="translate(-82.4921875, -9.5)"><rect rx="0" ry="0" width="164.984375" height="19"></rect><foreignObject width="164.984375" height="19"><div xmlns="http://www.w3.org/1999/xhtml" style="display: inline-block; white-space: nowrap;"><span class="edgeLabel">safe rejection message</span></div></foreignObject></g></g></g><g class="nodes"><g class="node default" id="state-root_start-0" data-node="true" data-id="root_start" transform="translate(723.02734375, 15)"><circle class="state-start" r="7" width="14" height="14"></circle></g><g class="node  statediagram-state undefined" id="state-InputValidation-2" data-node="true" data-id="InputValidation" transform="translate(723.02734375, 89)"><rect class="basic label-container" style="" x="-61.7890625" y="-17" width="123.578125" height="34"></rect><g class="label" style="" transform="translate(-54.2890625, -9.5)"><rect></rect><foreignObject width="108.578125" height="19"><div xmlns="http://www.w3.org/1999/xhtml" style="display: inline-block; white-space: nowrap;"><span class="nodeLabel">InputValidation</span></div></foreignObject></g></g><g class="node  statediagram-state undefined" id="state-Reject-15" data-node="true" data-id="Reject" transform="translate(1175.8515625, 845)"><rect class="basic label-container" style="" x="-30.625" y="-17" width="61.25" height="34"></rect><g class="label" style="" transform="translate(-23.125, -9.5)"><rect></rect><foreignObject width="46.25" height="19"><div xmlns="http://www.w3.org/1999/xhtml" style="display: inline-block; white-space: nowrap;"><span class="nodeLabel">Reject</span></div></foreignObject></g></g><g class="node  statediagram-state undefined" id="state-Plan-11" data-node="true" data-id="Plan" transform="translate(402.46875, 217)"><rect class="basic label-container" style="" x="-22.8984375" y="-17" width="45.796875" height="34"></rect><g class="label" style="" transform="translate(-15.3984375, -9.5)"><rect></rect><foreignObject width="30.796875" height="19"><div xmlns="http://www.w3.org/1999/xhtml" style="display: inline-block; white-space: nowrap;"><span class="nodeLabel">Plan</span></div></foreignObject></g></g><g class="node  statediagram-state undefined" id="state-Retrieve-5" data-node="true" data-id="Retrieve" transform="translate(45.40625, 339)"><rect class="basic label-container" style="" x="-37.40625" y="-17" width="74.8125" height="34"></rect><g class="label" style="" transform="translate(-29.90625, -9.5)"><rect></rect><foreignObject width="59.8125" height="19"><div xmlns="http://www.w3.org/1999/xhtml" style="display: inline-block; white-space: nowrap;"><span class="nodeLabel">Retrieve</span></div></foreignObject></g></g><g class="node statediagram-note" id="state-Plan----note-4" data-node="true" data-id="Plan----note-4" transform="translate(281.765625, 339)"><rect x="-113.0234375" y="-36" width="226.046875" height="72"></rect><g class="label" style="" transform="translate(-105.5234375, -28.5)"><rect></rect><foreignObject width="211.046875" height="57"><div xmlns="http://www.w3.org/1999/xhtml" style="display: inline-block; white-space: nowrap;"><span class="nodeLabel">Orchestrator decomposes the<br/>        query into ordered subtasks<br/>        and writes the plan to state</span></div></foreignObject></g></g><g class="node  statediagram-state undefined" id="state-CheckRetrieval-7" data-node="true" data-id="CheckRetrieval" transform="translate(284.2890625, 467)"><rect class="basic label-container" style="" x="-61.1171875" y="-17" width="122.234375" height="34"></rect><g class="label" style="" transform="translate(-53.6171875, -9.5)"><rect></rect><foreignObject width="107.234375" height="19"><div xmlns="http://www.w3.org/1999/xhtml" style="display: inline-block; white-space: nowrap;"><span class="nodeLabel">CheckRetrieval</span></div></foreignObject></g></g><g class="node  statediagram-state undefined" id="state-Analyze-9" data-node="true" data-id="Analyze" transform="translate(284.2890625, 595)"><rect class="basic label-container" style="" x="-35.2578125" y="-17" width="70.515625" height="34"></rect><g class="label" style="" transform="translate(-27.7578125, -9.5)"><rect></rect><foreignObject width="55.515625" height="19"><div xmlns="http://www.w3.org/1999/xhtml" style="display: inline-block; white-space: nowrap;"><span class="nodeLabel">Analyze</span></div></foreignObject></g></g><g class="node  statediagram-state undefined" id="state-Verify-12" data-node="true" data-id="Verify" transform="translate(775.23046875, 698)"><rect class="basic label-container" style="" x="-28.34375" y="-17" width="56.6875" height="34"></rect><g class="label" style="" transform="translate(-20.84375, -9.5)"><rect></rect><foreignObject width="41.6875" height="19"><div xmlns="http://www.w3.org/1999/xhtml" style="display: inline-block; white-space: nowrap;"><span class="nodeLabel">Verify</span></div></foreignObject></g></g><g class="node statediagram-note" id="state-Analyze----note-9" data-node="true" data-id="Analyze----note-9" transform="translate(243.4765625, 698)"><rect x="-116.8828125" y="-36" width="233.765625" height="72"></rect><g class="label" style="" transform="translate(-109.3828125, -28.5)"><rect></rect><foreignObject width="218.765625" height="57"><div xmlns="http://www.w3.org/1999/xhtml" style="display: inline-block; white-space: nowrap;"><span class="nodeLabel">Analyst reasons across chunks,<br/>        produces sub-answers, then<br/>        synthesizes a draft answer</span></div></foreignObject></g></g><g class="node  statediagram-state undefined" id="state-Synthesize-13" data-node="true" data-id="Synthesize" transform="translate(624.9921875, 845)"><rect class="basic label-container" style="" x="-45.25" y="-17" width="90.5" height="34"></rect><g class="label" style="" transform="translate(-37.75, -9.5)"><rect></rect><foreignObject width="75.5" height="19"><div xmlns="http://www.w3.org/1999/xhtml" style="display: inline-block; white-space: nowrap;"><span class="nodeLabel">Synthesize</span></div></foreignObject></g></g><g class="node  statediagram-state undefined" id="state-Flagged-14" data-node="true" data-id="Flagged" transform="translate(925.46875, 845)"><rect class="basic label-container" style="" x="-35.1171875" y="-17" width="70.234375" height="34"></rect><g class="label" style="" transform="translate(-27.6171875, -9.5)"><rect></rect><foreignObject width="55.234375" height="19"><div xmlns="http://www.w3.org/1999/xhtml" style="display: inline-block; white-space: nowrap;"><span class="nodeLabel">Flagged</span></div></foreignObject></g></g><g class="node default" id="state-root_end-15" data-node="true" data-id="root_end" transform="translate(925.46875, 938)"><circle class="state-start" r="7" width="14" height="14"></circle><circle class="state-end" r="5" width="10" height="10"></circle></g></g></g></g></svg>