<svg id="graphDiv" width="100%" xmlns="http://www.w3.org/2000/svg" style="max-width: 1688.234375px;" viewBox="-8 -8 1688.234375 497" role="graphics-document document" aria-roledescription="flowchart-v2"><style>#graphDiv{font-family:"trebuchet ms",verdana,arial,sans-serif;font-size:16px;fill:#333;}#graphDiv .error-icon{fill:#552222;}#graphDiv .error-text{fill:#552222;stroke:#552222;}#graphDiv .edge-thickness-normal{stroke-width:2px;}#graphDiv .edge-thickness-thick{stroke-width:3.5px;}#graphDiv .edge-pattern-solid{stroke-dasharray:0;}#graphDiv .edge-pattern-dashed{stroke-dasharray:3;}#graphDiv .edge-pattern-dotted{stroke-dasharray:2;}#graphDiv .marker{fill:#333333;stroke:#333333;}#graphDiv .marker.cross{stroke:#333333;}#graphDiv svg{font-family:"trebuchet ms",verdana,arial,sans-serif;font-size:16px;}#graphDiv .label{font-family:"trebuchet ms",verdana,arial,sans-serif;color:#333;}#graphDiv .cluster-label text{fill:#333;}#graphDiv .cluster-label span,#graphDiv p{color:#333;}#graphDiv .label text,#graphDiv span,#graphDiv p{fill:#333;color:#333;}#graphDiv .node rect,#graphDiv .node circle,#graphDiv .node ellipse,#graphDiv .node polygon,#graphDiv .node path{fill:#ECECFF;stroke:#9370DB;stroke-width:1px;}#graphDiv .flowchart-label text{text-anchor:middle;}#graphDiv .node .katex path{fill:#000;stroke:#000;stroke-width:1px;}#graphDiv .node .label{text-align:center;}#graphDiv .node.clickable{cursor:pointer;}#graphDiv .arrowheadPath{fill:#333333;}#graphDiv .edgePath .path{stroke:#333333;stroke-width:2.0px;}#graphDiv .flowchart-link{stroke:#333333;fill:none;}#graphDiv .edgeLabel{background-color:#e8e8e8;text-align:center;}#graphDiv .edgeLabel rect{opacity:0.5;background-color:#e8e8e8;fill:#e8e8e8;}#graphDiv .labelBkg{background-color:rgba(232, 232, 232, 0.5);}#graphDiv .cluster rect{fill:#ffffde;stroke:#aaaa33;stroke-width:1px;}#graphDiv .cluster text{fill:#333;}#graphDiv .cluster span,#graphDiv p{color:#333;}#graphDiv div.mermaidTooltip{position:absolute;text-align:center;max-width:200px;padding:2px;font-family:"trebuchet ms",verdana,arial,sans-serif;font-size:12px;background:hsl(80, 100%, 96.2745098039%);border:1px solid #aaaa33;border-radius:2px;pointer-events:none;z-index:100;}#graphDiv .flowchartTitleText{text-anchor:middle;font-size:18px;fill:#333;}#graphDiv :root{--mermaid-font-family:"trebuchet ms",verdana,arial,sans-serif;}</style><g><marker id="graphDiv_flowchart-pointEnd" class="marker flowchart" viewBox="0 0 10 10" refX="6" refY="5" markerUnits="userSpaceOnUse" markerWidth="12" markerHeight="12" orient="auto"><path d="M 0 0 L 10 5 L 0 10 z" class="arrowMarkerPath" style="stroke-width: 1; stroke-dasharray: 1, 0;"></path></marker><marker id="graphDiv_flowchart-pointStart" class="marker flowchart" viewBox="0 0 10 10" refX="4.5" refY="5" markerUnits="userSpaceOnUse" markerWidth="12" markerHeight="12" orient="auto"><path d="M 0 5 L 10 10 L 10 0 z" class="arrowMarkerPath" style="stroke-width: 1; stroke-dasharray: 1, 0;"></path></marker><marker id="graphDiv_flowchart-circleEnd" class="marker flowchart" viewBox="0 0 10 10" refX="11" refY="5" markerUnits="userSpaceOnUse" markerWidth="11" markerHeight="11" orient="auto"><circle cx="5" cy="5" r="5" class="arrowMarkerPath" style="stroke-width: 1; stroke-dasharray: 1, 0;"></circle></marker><marker id="graphDiv_flowchart-circleStart" class="marker flowchart" viewBox="0 0 10 10" refX="-1" refY="5" markerUnits="userSpaceOnUse" markerWidth="11" markerHeight="11" orient="auto"><circle cx="5" cy="5" r="5" class="arrowMarkerPath" style="stroke-width: 1; stroke-dasharray: 1, 0;"></circle></marker><marker id="graphDiv_flowchart-crossEnd" class="marker cross flowchart" viewBox="0 0 11 11" refX="12" refY="5.2" markerUnits="userSpaceOnUse" markerWidth="11" markerHeight="11" orient="auto"><path d="M 1,1 l 9,9 M 10,1 l -9,9" class="arrowMarkerPath" style="stroke-width: 2; stroke-dasharray: 1, 0;"></path></marker><marker id="graphDiv_flowchart-crossStart" class="marker cross flowchart" viewBox="0 0 11 11" refX="-1" refY="5.2" markerUnits="userSpaceOnUse" markerWidth="11" markerHeight="11" orient="auto"><path d="M 1,1 l 9,9 M 10,1 l -9,9" class="arrowMarkerPath" style="stroke-width: 2; stroke-dasharray: 1, 0;"></path></marker><g class="root"><g class="clusters"><g class="cluster default flowchart-label" id="WORK"><rect style="" rx="0" ry="0" x="986.7734375" y="288" width="167.890625" height="84"></rect><g class="cluster-label" transform="translate(1012.3359375, 288)"><foreignObject width="116.765625" height="19"><div xmlns="http://www.w3.org/1999/xhtml" style="display: inline-block; white-space: nowrap;"><span class="nodeLabel">Ways of Working</span></div></foreignObject></g></g><g class="cluster default flowchart-label" id="LIFECYCLE"><rect style="" rx="0" ry="0" x="1397.4375" y="0" width="274.796875" height="238"></rect><g class="cluster-label" transform="translate(1465.1640625, 0)"><foreignObject width="139.34375" height="19"><div xmlns="http://www.w3.org/1999/xhtml" style="display: inline-block; white-space: nowrap;"><span class="nodeLabel">Performance &amp; Exit</span></div></foreignObject></g></g><g class="cluster default flowchart-label" id="HIRE"><rect style="" rx="0" ry="0" x="0" y="0" width="449.203125" height="481"></rect><g class="cluster-label" transform="translate(136.2109375, 0)"><foreignObject width="176.78125" height="19"><div xmlns="http://www.w3.org/1999/xhtml" style="display: inline-block; white-space: nowrap;"><span class="nodeLabel">Hiring &amp; Talent Lifecycle</span></div></foreignObject></g></g></g><g class="edgePaths"><path d="M197.984,94L184.844,104C171.705,114,145.427,134,132.288,148.167C119.148,162.333,119.148,170.667,119.148,174.833L119.148,179" id="L-SRC-REF-0" class=" edge-thickness-normal edge-pattern-solid flowchart-link LS-SRC LE-REF" style="fill:none;"></path><path d="M119.148,213L119.148,217.167C119.148,221.333,119.148,229.667,119.148,238C119.148,246.333,119.148,254.667,119.148,263C119.148,271.333,119.148,279.667,119.148,288C119.148,296.333,119.148,304.667,119.148,308.833L119.148,313" id="L-REF-REFD-0" class=" edge-thickness-normal edge-pattern-solid flowchart-link LS-REF LE-REFD" style="fill:none;"></path><path d="M242.657,94L255.796,104C268.935,114,295.214,134,308.353,148.167C321.492,162.333,321.492,170.667,321.492,174.833L321.492,179" id="L-SRC-BGV-0" class=" edge-thickness-normal edge-pattern-solid flowchart-link LS-SRC LE-BGV" style="fill:none;"></path><path d="M321.492,213L321.492,217.167C321.492,221.333,321.492,229.667,321.492,238C321.492,246.333,321.492,254.667,321.492,263C321.492,271.333,321.492,279.667,322.484,288C323.476,296.333,325.46,304.667,326.453,308.833L327.445,313" id="L-BGV-REH-0" class=" edge-thickness-normal edge-pattern-solid flowchart-link LS-BGV LE-REH" style="fill:none;"></path><path d="M331.492,347L331.492,351.167C331.492,355.333,331.492,363.667,331.492,372C331.492,380.333,331.492,388.667,332.484,397C333.476,405.333,335.46,413.667,336.453,417.833L337.445,422" id="L-REH-RET-0" class=" edge-thickness-normal edge-pattern-solid flowchart-link LS-REH LE-RET" style="fill:none;"></path><path d="M1534.836,94L1534.836,104C1534.836,114,1534.836,134,1534.836,148.167C1534.836,162.333,1534.836,170.667,1534.836,174.833L1534.836,179" id="L-PERF-SEP-0" class=" edge-thickness-normal edge-pattern-solid flowchart-link LS-PERF LE-SEP" style="fill:none;"></path><path d="M1534.836,213L1534.836,217.167C1534.836,221.333,1534.836,229.667,1343.255,238C1151.673,246.333,768.51,254.667,576.929,263C385.348,271.333,385.348,279.667,380.005,288C374.662,296.333,363.976,304.667,358.634,308.833L353.291,313" id="L-SEP-REH-0" class=" edge-thickness-normal edge-pattern-solid flowchart-link LS-SEP LE-REH" style="fill:none;"></path><path d="M1070.719,347L1070.719,351.167C1070.719,355.333,1070.719,363.667,958.157,372C845.595,380.333,620.471,388.667,502.567,397C384.662,405.333,373.976,413.667,368.634,417.833L363.291,422" id="L-WM-RET-0" class=" edge-thickness-normal edge-pattern-solid flowchart-link LS-WM LE-RET" style="fill:none;"></path></g><g class="edgeLabels"><g class="edgeLabel"><g class="label" transform="translate(0, 0)"><foreignObject width="0" height="0"><div xmlns="http://www.w3.org/1999/xhtml" style="display: inline-block; white-space: nowrap;"><span class="edgeLabel"></span></div></foreignObject></g></g><g class="edgeLabel"><g class="label" transform="translate(0, 0)"><foreignObject width="0" height="0"><div xmlns="http://www.w3.org/1999/xhtml" style="display: inline-block; white-space: nowrap;"><span class="edgeLabel"></span></div></foreignObject></g></g><g class="edgeLabel"><g class="label" transform="translate(0, 0)"><foreignObject width="0" height="0"><div xmlns="http://www.w3.org/1999/xhtml" style="display: inline-block; white-space: nowrap;"><span class="edgeLabel"></span></div></foreignObject></g></g><g class="edgeLabel"><g class="label" transform="translate(0, 0)"><foreignObject width="0" height="0"><div xmlns="http://www.w3.org/1999/xhtml" style="display: inline-block; white-space: nowrap;"><span class="edgeLabel"></span></div></foreignObject></g></g><g class="edgeLabel"><g class="label" transform="translate(0, 0)"><foreignObject width="0" height="0"><div xmlns="http://www.w3.org/1999/xhtml" style="display: inline-block; white-space: nowrap;"><span class="edgeLabel"></span></div></foreignObject></g></g><g class="edgeLabel"><g class="label" transform="translate(0, 0)"><foreignObject width="0" height="0"><div xmlns="http://www.w3.org/1999/xhtml" style="display: inline-block; white-space: nowrap;"><span class="edgeLabel"></span></div></foreignObject></g></g><g class="edgeLabel"><g class="label" transform="translate(0, 0)"><foreignObject width="0" height="0"><div xmlns="http://www.w3.org/1999/xhtml" style="display: inline-block; white-space: nowrap;"><span class="edgeLabel"></span></div></foreignObject></g></g><g class="edgeLabel"><g class="label" transform="translate(0, 0)"><foreignObject width="0" height="0"><div xmlns="http://www.w3.org/1999/xhtml" style="display: inline-block; white-space: nowrap;"><span class="edgeLabel"></span></div></foreignObject></g></g></g><g class="nodes"><g class="node default default flowchart-label" id="flowchart-WM-109" data-node="true" data-id="WM" transform="translate(1070.71875, 330)"><rect class="basic label-container" style="" rx="0" ry="0" x="-48.9453125" y="-17" width="97.890625" height="34"></rect><g class="label" style="" transform="translate(-41.4453125, -9.5)"><rect></rect><foreignObject width="82.890625" height="19"><div xmlns="http://www.w3.org/1999/xhtml" style="display: inline-block; white-space: nowrap;"><span class="nodeLabel">Work Model</span></div></foreignObject></g></g><g class="node default default flowchart-label" id="flowchart-SEP-106" data-node="true" data-id="SEP" transform="translate(1534.8359375, 196)"><rect class="basic label-container" style="" rx="0" ry="0" x="-102.3984375" y="-17" width="204.796875" height="34"></rect><g class="label" style="" transform="translate(-94.8984375, -9.5)"><rect></rect><foreignObject width="189.796875" height="19"><div xmlns="http://www.w3.org/1999/xhtml" style="display: inline-block; white-space: nowrap;"><span class="nodeLabel">Separation of Employment</span></div></foreignObject></g></g><g class="node default default flowchart-label" id="flowchart-PERF-105" data-node="true" data-id="PERF" transform="translate(1534.8359375, 77)"><rect class="basic label-container" style="" rx="0" ry="0" x="-100.75" y="-17" width="201.5" height="34"></rect><g class="label" style="" transform="translate(-93.25, -9.5)"><rect></rect><foreignObject width="186.5" height="19"><div xmlns="http://www.w3.org/1999/xhtml" style="display: inline-block; white-space: nowrap;"><span class="nodeLabel">Performance Management</span></div></foreignObject></g></g><g class="root" transform="translate(476.703125, 17)"><g class="clusters"><g class="cluster default flowchart-label" id="CONDUCT"><rect style="" rx="0" ry="0" x="8" y="8" width="878.234375" height="104"></rect><g class="cluster-label" transform="translate(347.9296875, 8)"><foreignObject width="198.375" height="19"><div xmlns="http://www.w3.org/1999/xhtml" style="display: inline-block; white-space: nowrap;"><span class="nodeLabel">Conduct, Safety &amp; Inclusion</span></div></foreignObject></g></g></g><g class="edgePaths"><path d="M255.266,60L259.432,60C263.599,60,271.932,60,280.266,60C288.599,60,296.932,60,301.099,60L305.266,60" id="L-HAR-MIS-0" class=" edge-thickness-normal edge-pattern-solid flowchart-link LS-HAR LE-MIS" style="fill:none;"></path><path d="M589.563,60L593.729,60C597.896,60,606.229,60,614.563,60C622.896,60,631.229,60,635.396,60L639.563,60" id="L-MIS-GEN-0" class=" edge-thickness-normal edge-pattern-solid flowchart-link LS-MIS LE-GEN" style="fill:none;"></path></g><g class="edgeLabels"><g class="edgeLabel"><g class="label" transform="translate(0, 0)"><foreignObject width="0" height="0"><div xmlns="http://www.w3.org/1999/xhtml" style="display: inline-block; white-space: nowrap;"><span class="edgeLabel"></span></div></foreignObject></g></g><g class="edgeLabel"><g class="label" transform="translate(0, 0)"><foreignObject width="0" height="0"><div xmlns="http://www.w3.org/1999/xhtml" style="display: inline-block; white-space: nowrap;"><span class="edgeLabel"></span></div></foreignObject></g></g></g><g class="nodes"><g class="node default default flowchart-label" id="flowchart-MIS-102" data-node="true" data-id="MIS" transform="translate(447.4140625, 60)"><rect class="basic label-container" style="" rx="0" ry="0" x="-142.1484375" y="-17" width="284.296875" height="34"></rect><g class="label" style="" transform="translate(-134.6484375, -9.5)"><rect></rect><foreignObject width="269.296875" height="19"><div xmlns="http://www.w3.org/1999/xhtml" style="display: inline-block; white-space: nowrap;"><span class="nodeLabel">Workplace Misconduct &amp; Remediation</span></div></foreignObject></g></g><g class="node default default flowchart-label" id="flowchart-HAR-101" data-node="true" data-id="HAR" transform="translate(144.1328125, 60)"><rect class="basic label-container" style="" rx="0" ry="0" x="-111.1328125" y="-17" width="222.265625" height="34"></rect><g class="label" style="" transform="translate(-103.6328125, -9.5)"><rect></rect><foreignObject width="207.265625" height="19"><div xmlns="http://www.w3.org/1999/xhtml" style="display: inline-block; white-space: nowrap;"><span class="nodeLabel">Harassment &amp; Discrimination</span></div></foreignObject></g></g><g class="node default default flowchart-label" id="flowchart-GEN-104" data-node="true" data-id="GEN" transform="translate(750.3984375, 60)"><rect class="basic label-container" style="" rx="0" ry="0" x="-110.8359375" y="-17" width="221.671875" height="34"></rect><g class="label" style="" transform="translate(-103.3359375, -9.5)"><rect></rect><foreignObject width="206.671875" height="19"><div xmlns="http://www.w3.org/1999/xhtml" style="display: inline-block; white-space: nowrap;"><span class="nodeLabel">Gender Transition Guidelines</span></div></foreignObject></g></g></g></g><g class="node default default flowchart-label" id="flowchart-REF-92" data-node="true" data-id="REF" transform="translate(119.1484375, 196)"><rect class="basic label-container" style="" rx="0" ry="0" x="-59.6328125" y="-17" width="119.265625" height="34"></rect><g class="label" style="" transform="translate(-52.1328125, -9.5)"><rect></rect><foreignObject width="104.265625" height="19"><div xmlns="http://www.w3.org/1999/xhtml" style="display: inline-block; white-space: nowrap;"><span class="nodeLabel">Referral Policy</span></div></foreignObject></g></g><g class="node default default flowchart-label" id="flowchart-SRC-91" data-node="true" data-id="SRC" transform="translate(220.3203125, 77)"><rect class="basic label-container" style="" rx="0" ry="0" x="-37.75" y="-17" width="75.5" height="34"></rect><g class="label" style="" transform="translate(-30.25, -9.5)"><rect></rect><foreignObject width="60.5" height="19"><div xmlns="http://www.w3.org/1999/xhtml" style="display: inline-block; white-space: nowrap;"><span class="nodeLabel">Sourcing</span></div></foreignObject></g></g><g class="node default default flowchart-label" id="flowchart-REFD-94" data-node="true" data-id="REFD" transform="translate(119.1484375, 330)"><rect class="basic label-container" style="" rx="0" ry="0" x="-84.1484375" y="-17" width="168.296875" height="34"></rect><g class="label" style="" transform="translate(-76.6484375, -9.5)"><rect></rect><foreignObject width="153.296875" height="19"><div xmlns="http://www.w3.org/1999/xhtml" style="display: inline-block; white-space: nowrap;"><span class="nodeLabel">Referral Do's &amp; Don'ts</span></div></foreignObject></g></g><g class="node default default flowchart-label" id="flowchart-BGV-96" data-node="true" data-id="BGV" transform="translate(321.4921875, 196)"><rect class="basic label-container" style="" rx="0" ry="0" x="-92.7109375" y="-17" width="185.421875" height="34"></rect><g class="label" style="" transform="translate(-85.2109375, -9.5)"><rect></rect><foreignObject width="170.421875" height="19"><div xmlns="http://www.w3.org/1999/xhtml" style="display: inline-block; white-space: nowrap;"><span class="nodeLabel">Background Verification</span></div></foreignObject></g></g><g class="node default default flowchart-label" id="flowchart-REH-98" data-node="true" data-id="REH" transform="translate(331.4921875, 330)"><rect class="basic label-container" style="" rx="0" ry="0" x="-30.3203125" y="-17" width="60.640625" height="34"></rect><g class="label" style="" transform="translate(-22.8203125, -9.5)"><rect></rect><foreignObject width="45.640625" height="19"><div xmlns="http://www.w3.org/1999/xhtml" style="display: inline-block; white-space: nowrap;"><span class="nodeLabel">Rehire</span></div></foreignObject></g></g><g class="node default default flowchart-label" id="flowchart-RET-100" data-node="true" data-id="RET" transform="translate(341.4921875, 439)"><rect class="basic label-container" style="" rx="0" ry="0" x="-45.5703125" y="-17" width="91.140625" height="34"></rect><g class="label" style="" transform="translate(-38.0703125, -9.5)"><rect></rect><foreignObject width="76.140625" height="19"><div xmlns="http://www.w3.org/1999/xhtml" style="display: inline-block; white-space: nowrap;"><span class="nodeLabel">Returnship</span></div></foreignObject></g></g></g></g></g></svg>